<?xml version="1.0" standalone="no"?><!DOCTYPE svg PUBLIC "-//W3C//DTD SVG 1.1//EN" "http://www.w3.org/Graphics/SVG/1.1/DTD/svg11.dtd"><svg t="1711942922409" class="icon" viewBox="0 0 1024 1024" version="1.1" xmlns="http://www.w3.org/2000/svg" p-id="1581" xmlns:xlink="http://www.w3.org/1999/xlink" width="32" height="32"><path d="M915.649512 596.423559L506.823559 187.593575c-27.724598-27.716535-82.476346-50.550929-121.682646-50.736378l-226.299968-1.096567c-39.202268-0.18948-71.27685 31.731906-71.276851 70.930142v210.266708c0 39.202268 22.681197 93.958047 50.401764 121.674583l417.731528 417.739591c27.716535 27.716535 73.082961 27.716535 100.803527 0l259.144567-259.148599c27.724598-27.712504 27.724598-73.082961 0.004032-100.799496zM272.609764 398.557732c-43.132976 0-78.098142-34.965165-78.098142-78.098141s34.965165-78.098142 78.098142-78.098142 78.098142 34.961134 78.098142 78.098142-34.965165 78.098142-78.098142 78.098141z" fill="#ECDDFF" p-id="1582"></path><path d="M141.110425 186.154331l226.299969 1.096567c39.206299 0.185449 93.958047 23.019843 121.682645 50.736378l408.829985 408.829984c13.690961 13.690961 20.58885 31.683528 20.754141 49.732535 27.083591-27.764913 26.906205-72.62337-0.596661-100.126236L509.25052 187.593575c-27.724598-27.716535-82.476346-50.550929-121.682646-50.736378l-226.299968-1.096567c-39.202268-0.18948-71.27685 31.731906-71.276851 70.930142v1.011905c12.981417-13.34022 31.102992-21.645102 51.11937-21.548346z" fill="#FFFFFF" opacity=".3" p-id="1583"></path><path d="M172.749606 355.404598c0 51.663622 41.879181 93.542803 93.542803 93.542804 50.873449 0 92.176126-40.629417 93.42589-91.208567-17.117732 18.903685-41.774362 30.844976-69.28126 30.844976-51.663622 0-93.542803-41.879181-93.542803-93.542803 0-0.790173 0.096756-1.552126 0.116914-2.334236-15.025386 16.601701-24.261543 38.545134-24.261544 62.697826z" fill="#FFFFFF" opacity=".3" p-id="1584"></path><path d="M606.09915 995.29978c-23.939024 0-46.398488-9.268409-63.234016-26.103937L125.137638 551.456252c-31.240063-31.232-55.715276-90.313575-55.715276-134.498772V206.690772c0-49.115717 39.956157-89.071874 89.071874-89.071874h0.43137l226.304 1.096567c44.144882 0.209638 103.190173 24.825953 134.414111 56.045858L928.477732 583.59937c16.835528 16.835528 26.103937 39.282898 26.103937 63.229984s-9.276472 46.40252-26.112 63.234016l-259.140535 259.140536c-16.831496 16.827465-39.290961 26.095874-63.229984 26.095874zM158.74822 153.902362c-29.365417 0-53.046425 23.681008-53.046425 52.78841v210.266708c0 34.566047 20.649323 84.411465 45.088252 108.842331l417.731528 417.743622c9.986016 9.977953 23.322205 15.472882 37.573543 15.472882 14.247307 0 27.599622-5.494929 37.573543-15.476913l259.140536-259.136504c9.986016-9.986016 15.480945-23.322205 15.480945-37.573544 0-14.247307-5.490898-27.591559-15.472882-37.56548L493.991307 200.421795c-24.463118-24.459087-74.352882-45.261606-108.939087-45.422866l-226.304-1.096567z m113.861544 262.797103c-53.066583 0-96.239874-43.173291-96.239874-96.239874s43.173291-96.239874 96.239874-96.239874 96.239874 43.173291 96.239874 96.239874-43.173291 96.239874-96.239874 96.239874z m0-156.196284c-33.062299 0-59.956409 26.89411-59.95641 59.95641s26.89411 59.956409 59.95641 59.956409 59.956409-26.89411 59.956409-59.956409-26.898142-59.956409-59.956409-59.95641z" fill="#6E6E96" p-id="1585"></path><path d="M176.36989 26.204724h36.283464v294.254867h-36.283464z" fill="#6E6E96" p-id="1586"></path><path d="M606.09915 959.746016c-24.442961 0-48.889953-9.308724-67.499339-27.922142L120.86022 514.096378c-32.235843-32.231811-45.390614-93.192063-45.390614-138.776189h36.283465c0 32.634961 20.242142 81.496693 43.314394 104.568945l417.735559 417.743622c18.363465 18.355402 48.23685 18.359433 66.600315-0.008063l279.7697-279.769701 34.203213 34.203213-279.769701 279.769701c-18.609386 18.613417-43.064441 27.91811-67.507401 27.91811z" fill="#6E6E96" opacity=".2" p-id="1587"></path></svg>