<?xml version="1.0" standalone="no"?><!DOCTYPE svg PUBLIC "-//W3C//DTD SVG 1.1//EN" "http://www.w3.org/Graphics/SVG/1.1/DTD/svg11.dtd"><svg t="1710921336294" class="icon" viewBox="0 0 1024 1024" version="1.1" xmlns="http://www.w3.org/2000/svg" p-id="7442" id="mx_n_1710921336297" width="64" height="64" xmlns:xlink="http://www.w3.org/1999/xlink"><path d="M41.989749 366.160605L463.886746 17.24579c26.99341-22.994386 67.983402-22.994386 95.976569 0l421.896997 348.914815c26.99341 21.99463 41.989749 53.98682 41.989749 86.978765v523.872102c0 25.993654-21.99463 45.988772-48.98804 45.988772H48.98804c-26.99341 0-48.98804-20.994874-48.98804-45.988772V453.13937c0-32.991945 14.996339-64.984135 41.989749-86.978765z" fill="#FF3334" p-id="7443"></path><path d="M511.875031 841.044667c-160.960703 0-291.928728-124.96949-291.928729-278.931902a25.993654 25.993654 0 0 1 50.987552 0c0 125.969246 107.973639 227.94435 240.941177 227.94435s240.941176-102.97486 240.941176-227.94435a25.993654 25.993654 0 0 1 50.987552 0c0 152.962656-130.968025 278.931901-291.928728 278.931902z" fill="#FFFFFF" p-id="7444"></path></svg>